Coordinates
version=1
nRows=20
nColumns=38
inDegrees=no

Units are S.I. units (second, meters, Newtons, ...)
If the header above contains a line with 'inDegrees', this indicates whether rotational values are in degrees (yes) or radians (no).

endheader
time	pelvis_tilt	pelvis_list	pelvis_rotation	pelvis_tx	pelvis_ty	pelvis_tz	hip_flexion_r	hip_adduction_r	hip_rotation_r	knee_angle_r	ankle_angle_r	subtalar_angle_r	mtp_angle_r	hip_flexion_l	hip_adduction_l	hip_rotation_l	knee_angle_l	ankle_angle_l	subtalar_angle_l	mtp_angle_l	lumbar_extension	lumbar_bending	lumbar_rotation	arm_flex_r	arm_add_r	arm_rot_r	elbow_flex_r	pro_sup_r	wrist_flex_r	wrist_dev_r	arm_flex_l	arm_add_l	arm_rot_l	elbow_flex_l	pro_sup_l	wrist_flex_l	wrist_dev_l
1.55	3.09914	1.31063	-1.50492	0.815551	0.602192	1.02877	-0.012556	0.0571328	-0.228734	0.680968	-0.0965469	0	0	0.065758	-0.0942737	-0.232521	1.18009	-0.0363499	0	0	-0.583819	0.172344	0.563837	-0.546062	-0.330661	-0.724206	1.99661	0.807711	0	0	0.547197	-0.214785	0.558174	1.10775	0.778464	0	0
1.56	3.10301	1.3091	-1.51077	0.816291	0.611899	1.02988	-0.0304466	0.056912	-0.232947	0.670301	-0.0942987	0	0	0.0777208	-0.0988798	-0.257832	1.15632	-0.0419927	0	0	-0.585435	0.17086	0.565224	-0.546776	-0.331496	-0.724782	1.99767	0.808388	0	0	0.545434	-0.214528	0.55656	1.10874	0.778079	0	0
1.57	3.10481	1.30726	-1.51531	0.81701	0.621647	1.03092	-0.0489491	0.0573168	-0.235939	0.659063	-0.0922316	0	0	0.0875892	-0.106572	-0.290111	1.12996	-0.0498174	0	0	-0.587447	0.169638	0.567869	-0.548199	-0.332188	-0.726269	1.99921	0.809616	0	0	0.543824	-0.214332	0.55547	1.10989	0.779108	0	0
1.58	3.10571	1.30518	-1.51895	0.817606	0.631396	1.03187	-0.0673632	0.0574449	-0.239899	0.648394	-0.0905158	0	0	0.095246	-0.115499	-0.326283	1.10035	-0.0583964	0	0	-0.589725	0.168768	0.571041	-0.550026	-0.332205	-0.728026	2.00119	0.809085	0	0	0.542687	-0.214276	0.5551	1.11096	0.782664	0	0
1.59	3.1076	1.30355	-1.52307	0.818104	0.641076	1.03272	-0.0851191	0.0572375	-0.243929	0.637619	-0.0890206	0	0	0.101272	-0.121649	-0.358599	1.06703	-0.0656853	0	0	-0.591644	0.167692	0.574025	-0.551922	-0.332067	-0.730182	2.00299	0.808089	0	0	0.541796	-0.213544	0.554591	1.11206	0.785594	0	0
1.6	3.11033	1.30284	-1.52788	0.818576	0.650659	1.03341	-0.101398	0.0569416	-0.246644	0.627503	-0.0879288	0	0	0.106704	-0.124192	-0.38569	1.02969	-0.0717913	0	0	-0.592938	0.166215	0.577073	-0.553797	-0.331745	-0.732767	2.00468	0.807473	0	0	0.541153	-0.212296	0.55386	1.11334	0.787385	0	0
1.61	3.11402	1.30276	-1.53367	0.819029	0.660116	1.03397	-0.116458	0.0566359	-0.247592	0.618282	-0.0871359	0	0	0.11151	-0.123787	-0.409058	0.988383	-0.0776981	0	0	-0.593848	0.164264	0.580073	-0.555312	-0.331375	-0.735546	2.00622	0.80691	0	0	0.540894	-0.210888	0.553092	1.11475	0.78832	0	0
1.62	3.11986	1.30294	-1.5401	0.819271	0.669551	1.03442	-0.131412	0.055877	-0.249957	0.608573	-0.0855934	0	0	0.11551	-0.120038	-0.428043	0.942527	-0.0862569	0	0	-0.593822	0.162732	0.580082	-0.554801	-0.331649	-0.736567	2.00662	0.809186	0	0	0.539966	-0.210129	0.55074	1.11607	0.791179	0	0
1.63	3.12696	1.30465	-1.54644	0.819278	0.678967	1.03462	-0.144105	0.0545574	-0.252958	0.600089	-0.0842086	0	0	0.120437	-0.112776	-0.440831	0.892583	-0.094518	0	0	-0.591958	0.161552	0.578935	-0.554815	-0.332419	-0.737349	2.00685	0.806639	0	0	0.5399	-0.209724	0.550296	1.11691	0.791651	0	0
1.64	3.13391	1.3082	-1.55227	0.819182	0.688358	1.03452	-0.154122	0.0534445	-0.253914	0.593338	-0.0831229	0	0	0.126452	-0.103233	-0.448701	0.839268	-0.100097	0	0	-0.588165	0.160544	0.577879	-0.554838	-0.332438	-0.73861	2.00684	0.806819	0	0	0.540291	-0.208862	0.550338	1.11695	0.79177	0	0
1.65	-3.14048	1.31222	-1.55913	0.819075	0.697703	1.03426	-0.163357	0.0521419	-0.254993	0.58729	-0.0805522	0	0	0.131582	-0.0911992	-0.449505	0.783069	-0.108129	0	0	-0.583839	0.159162	0.575742	-0.553938	-0.332008	-0.7395	2.0065	0.806007	0	0	0.541111	-0.208063	0.550005	1.11672	0.792978	0	0
1.66	-3.13244	1.317	-1.56495	0.818924	0.707021	1.03379	-0.171343	0.0511984	-0.255841	0.582019	-0.0773899	0	0	0.136134	-0.0771773	-0.443424	0.723074	-0.116095	0	0	-0.578812	0.158019	0.57369	-0.553179	-0.33153	-0.740604	2.00612	0.805834	0	0	0.542272	-0.206797	0.549592	1.11606	0.793865	0	0
1.67	-3.12584	1.32248	-1.56916	0.818698	0.716334	1.03312	-0.178043	0.0506001	-0.256479	0.577786	-0.0744976	0	0	0.139655	-0.0612095	-0.430285	0.658387	-0.124183	0	0	-0.573078	0.157418	0.571705	-0.552339	-0.330969	-0.74176	2.00572	0.805998	0	0	0.543723	-0.205252	0.549342	1.11485	0.794447	0	0
1.68	-3.12088	1.32878	-1.57185	0.818389	0.725656	1.03219	-0.183174	0.0502165	-0.257014	0.574649	-0.071638	0	0	0.142396	-0.0442662	-0.411501	0.589841	-0.1321	0	0	-0.566504	0.157269	0.570179	-0.551874	-0.330666	-0.743071	2.00536	0.805955	0	0	0.545472	-0.203346	0.549394	1.11315	0.795155	0	0
1.69	-3.11772	1.33555	-1.573	0.818052	0.735051	1.03101	-0.187387	0.0502212	-0.257356	0.57239	-0.0682956	0	0	0.143916	-0.0276046	-0.388724	0.51869	-0.140683	0	0	-0.559372	0.157343	0.569335	-0.552028	-0.33071	-0.744775	2.00503	0.807465	0	0	0.547595	-0.201265	0.549896	1.11109	0.796793	0	0
1.7	-3.11434	1.34245	-1.57415	0.817682	0.744593	1.02959	-0.191242	0.0500178	-0.258918	0.570928	-0.0641094	0	0	0.143525	-0.0109164	-0.361296	0.44544	-0.15178	0	0	-0.551228	0.157499	0.56698	-0.550466	-0.330815	-0.74509	2.00365	0.812457	0	0	0.549127	-0.200058	0.549697	1.10903	0.79812	0	0
1.71	-3.11424	1.34912	-1.5731	0.817304	0.754271	1.02796	-0.194977	0.0502849	-0.259305	0.570541	-0.0603481	0	0	0.142874	0.00233086	-0.338205	0.378741	-0.161565	0	0	-0.543273	0.158063	0.566019	-0.549664	-0.331132	-0.744928	2.00281	0.810935	0	0	0.550794	-0.198631	0.550006	1.10675	0.798095	0	0
1.72	-3.11757	1.35596	-1.56976	0.816918	0.764092	1.02609	-0.198146	0.0511156	-0.257778	0.571315	-0.0554394	0	0	0.143038	0.0124366	-0.319835	0.319077	-0.169794	0	0	-0.535003	0.158986	0.566232	-0.549218	-0.3318	-0.744597	2.00198	0.811322	0	0	0.551959	-0.196678	0.54946	1.10417	0.799753	0	0
1.73	-3.12017	1.3618	-1.56721	0.816492	0.774048	1.02413	-0.202347	0.0515795	-0.256311	0.57269	-0.0509427	0	0	0.140972	0.0221509	-0.29908	0.260855	-0.183166	0	0	-0.527743	0.159545	0.567216	-0.549801	-0.331995	-0.745789	2.00189	0.809257	0	0	0.554641	-0.195299	0.55248	1.10157	0.795773	0	0
1.74	-3.12522	1.36743	-1.56273	0.816062	0.78423	1.02198	-0.206599	0.0523112	-0.254339	0.575279	-0.045921	0	0	0.14099	0.0287585	-0.285434	0.215709	-0.193146	0	0	-0.520364	0.160229	0.568996	-0.550858	-0.331573	-0.747536	2.00186	0.809155	0	0	0.557027	-0.193289	0.554669	1.09843	0.794703	0	0
